<?xml version="1.0" encoding="utf-8"?>
<!-- Generator: Adobe Illustrator 22.1.0, SVG Export Plug-In . SVG Version: 6.00 Build 0)  -->
<svg version="1.1" id="Layer_1" xmlns="http://www.w3.org/2000/svg" xmlns:xlink="http://www.w3.org/1999/xlink" x="0px" y="0px"
	 viewBox="0 0 594 237" style="enable-background:new 0 0 594 237;" xml:space="preserve">
<style type="text/css">
	.st0{fill:#72B648;}
	.st1{fill:#E58000;}
</style>
<title>graficos</title>
<g>
	<polygon class="st0" points="594,233.5 594,168.4 532.7,168.4 520.9,126.9 492.7,126.9 479.4,80.9 470.3,80.9 447.6,168.4 
		382.9,169.1 368.9,48.4 355.5,48.4 342.2,2.4 331.8,2.4 318.4,49.8 305.2,49.8 291.8,169.9 249.5,170.5 237,60.2 215.7,60.2 
		200.9,26.2 192,24.7 177.2,55.7 163.8,169.9 0,169.9 0,235 	"/>
	<polygon class="st1" points="0,191.8 165.3,191.8 181.1,145.4 190.2,93.1 203.2,93.1 229.8,145.4 238.9,191.8 445.5,188.2 
		448.8,171.9 458.1,124 472.1,123.9 487.1,130.8 497,147.8 498.9,160.2 512,191.5 594,191.8 594,235.8 0,235.8 	"/>
</g>
</svg>
