<svg id="Layer_1" data-name="Layer 1" xmlns="http://www.w3.org/2000/svg" viewBox="0 0 615 237"><defs><style>.cls-1{fill:#72b647;}.cls-2{fill:#e58000;}</style></defs><title>graficos</title><path class="cls-1" d="M0,236.5V172.6H169l25.9-92.9h13.7l19.7,48.7h19.8L263.4,171h39.5c-1.5,0,13.7-127.8,13.7-127.8h10.7L341-1h13.7l10.6,44.2,16,.7,13,127.1,69.2.8,9.9-116.5,12.2-36.5h12.2l17.5,37.3h21.3l16,114.9H615v65.5Z"/><path class="cls-2" d="M0,198.4H182.7l15.2-53.2H236l10.6,53.2H408l10.6-15.2,15.2,15.2,25.9-35,14.5-34.2s9.1-6.1,13.7-7.6,12.2,0,12.2,1.5S513,152.8,513,152.8h12.2L537.4,171h25.8l15.3,27.4H615v38.1H0Z"/></svg>