<?xml version="1.0" encoding="utf-8"?>
<!-- Generator: Adobe Illustrator 22.1.0, SVG Export Plug-In . SVG Version: 6.00 Build 0)  -->
<svg version="1.1" id="Layer_1" xmlns="http://www.w3.org/2000/svg" xmlns:xlink="http://www.w3.org/1999/xlink" x="0px" y="0px"
	 viewBox="0 0 377.3 165.3" style="enable-background:new 0 0 377.3 165.3;" xml:space="preserve">
<style type="text/css">
	.st0{fill:#FFFFFF;}
	.st1{fill:#F18616;}
</style>
<g>
	<path class="st0" d="M103.6,55.5c1.1,0.9,1.6,2.1,1.6,3.6c0,2.6-1.7,3.7-5.2,3.7c-3.3,0-6.3-1.1-9-3.2l-3.2,7.2
		c2.4,1.3,4.4,2.2,5.9,2.5c1.5,0.4,3.6,0.7,6.1,0.7c4.5,0,8-1,10.7-3.1c2.6-2,4-4.8,4-8.3c0-2.7-0.8-5-2.2-6.9
		c-1.5-1.9-3.9-3.5-7.2-4.9c-3.3-1.3-5.5-2.4-6.5-3.2c-1.1-0.7-1.6-1.6-1.6-2.6c0-2.5,1.6-3.8,4.7-3.8c3.5,0,6.2,0.9,8.1,2.6
		l2.5-6.9c-3.5-1.8-7.2-2.7-11.2-2.7c-3.9,0-7.1,0.9-9.6,2.8c-2.5,1.8-3.8,4.5-3.8,7.7c0,5,3.3,8.8,9.9,11.5
		C100.5,53.5,102.6,54.5,103.6,55.5 M24.6,84.9H9.9v74.4h20.5v-53.8c1.9-2.2,4.6-4,8-5.4c3.4-1.4,6.6-2.2,9.6-2.2
		c6.5,0,11.2,1.5,14,4.4c2.9,2.9,4.3,7.5,4.3,13.9v43.1h20.5v-45.7c0-9.5-3-16.9-9-22.2c-6-5.4-14.3-8-24.7-8
		c-10.9,0-19.1,2.8-24.7,8.4L24.6,84.9z M16.7,18.8c0,2.2-1.1,3.3-3.3,3.3c-1.6,0-2.4-0.7-2.4-2.1c0-1.9,1.4-2.8,4.3-2.8l1.4,0.2
		V18.8z M20.6,24.8l1-1c-0.9-0.5-1.3-1.8-1.3-3.9v-3.4c0-3-0.5-5.1-1.7-6.1c-1.1-1-2.8-1.6-5.2-1.6c-1.7,0-3.2,0.3-4.5,0.9l0.8,2.9
		c0.9-0.4,2-0.7,3.4-0.7c2.3,0,3.5,0.9,3.5,2.7l-1.5-0.2c-2.5,0-4.4,0.5-5.7,1.5c-1.3,1-2,2.4-2,4.2c0,1.5,0.5,2.7,1.4,3.6
		c1,0.8,2.3,1.2,3.9,1.2l2.6-0.5l1.7-1.3l0.8,1.2l1.4,0.6L20.6,24.8z M33.7,30.9l-9.8,23.5l-9.1-23.5H5l17.2,39.1h3.2l17.7-39.1
		H33.7z M34.2,24.7h3.6V9.1h-3.6v10.7l-1.4,1.5l-2.3,0.6c-1.8,0-2.7-1-2.7-3V9.1h-3.6v10.1c0,3.8,1.8,5.8,5.4,5.8l2.5-0.5l2.1-1.1
		V24.7z M47.2,25c1.6,0,2.8-0.2,3.6-0.4v-3.4l-2.4,0.7l-1.8-0.7C46.2,20.8,46,20,46,18.8V12h4.3V9.1H46V4.6L42.4,6v3.1h-1.8V12h1.8
		v7.9c0,1.6,0.4,2.9,1.2,3.8C44.4,24.6,45.6,25,47.2,25 M64.8,37.6c5.6,0,8.6,2.8,9.3,8.5H55.4C56.6,40.4,59.8,37.6,64.8,37.6
		 M64.7,30.1c-5.2,0-9.7,1.9-13.4,5.6c-3.7,3.7-5.6,8.6-5.6,14.7c0,6.2,1.7,10.9,5.1,14.4c3.4,3.4,8,5.1,13.9,5.1
		c6.2,0,10.9-1.3,14-3.8l-3.4-6.8c-2.1,2-5.2,3.1-9.3,3.1c-3.3,0-5.9-0.8-7.8-2.5c-1.9-1.7-3-4.1-3.1-7.2h27.3
		c0.5-2.2,0.7-3.9,0.7-5c0-5.1-1.7-9.4-5-12.6C74.7,31.8,70.2,30.1,64.7,30.1 M63.7,16.9c0,1.6-0.3,2.9-1,3.8
		C62.1,21.5,61.2,22,60,22c-2.5,0-3.7-1.7-3.7-5.1c0-1.6,0.3-2.8,1-3.7c0.6-0.9,1.5-1.4,2.7-1.4C62.5,11.8,63.7,13.5,63.7,16.9
		 M65.5,22.8c1.3-1.5,2-3.5,2-5.9c0-2.5-0.7-4.5-2-5.9c-1.3-1.4-3.1-2.2-5.5-2.2c-2.2,0-4,0.8-5.4,2.3c-1.4,1.5-2.1,3.4-2.1,5.8
		c0,2.4,0.7,4.4,2,5.9c1.3,1.5,3.1,2.2,5.5,2.2C62.4,25,64.1,24.2,65.5,22.8 M80.7,16.9c0,1.8-0.4,3-1.1,3.8
		c-0.7,0.8-1.9,1.2-3.6,1.2l-2.3-0.8v-8.2l2.3-1c1.7,0,2.9,0.4,3.6,1.2C80.4,13.8,80.7,15.1,80.7,16.9 M82.4,22.9
		c1.4-1.4,2.1-3.3,2.1-5.9c0-5.5-2.5-8.2-7.4-8.2c-1.3,0-2.5,0.5-3.4,1.3v-1h-3.6v21.6h3.6v-6.5c0.9,0.5,2,0.7,3.1,0.7
		C79.2,25,81.1,24.3,82.4,22.9 M92.3,9.1h-5.7v3h2v12.6h3.7V9.1z M92,6.7l0.6-1.5L92,3.7l-1.5-0.6L89,3.7l-0.6,1.5L89,6.7l1.5,0.6
		L92,6.7z M100,14.3l-0.6-1.1c0-1,0.6-1.5,1.9-1.5c1.4,0,2.5,0.3,3.3,1l1-2.8c-1.4-0.8-2.9-1.1-4.5-1.1c-1.6,0-2.9,0.4-3.9,1.2
		c-1,0.7-1.5,1.8-1.5,3.2c0,2,1.3,3.5,4,4.7c1.3,0.5,2.1,0.9,2.5,1.3l0.6,1.4c0,1-0.7,1.5-2.1,1.5c-1.3,0-2.6-0.5-3.7-1.3l-1.3,2.9
		l2.4,1c0.6,0.2,1.5,0.3,2.5,0.3c1.8,0,3.3-0.4,4.4-1.2c1.1-0.9,1.6-2,1.6-3.4c0-1.1-0.3-2-0.9-2.8c-0.6-0.7-1.5-1.4-2.9-1.9
		C101.3,15.1,100.4,14.6,100,14.3 M114.7,25c1.6,0,2.7-0.2,3.6-0.4v-3.4l-2.5,0.7l-1.8-0.7c-0.3-0.4-0.5-1.2-0.5-2.4V12h4.3V9.1
		h-4.3V4.6L109.9,6v3.1h-1.8V12h1.8v7.9c0,1.6,0.4,2.9,1.2,3.8C112,24.6,113.2,25,114.7,25 M129.4,18.8c0,2.2-1.1,3.3-3.3,3.3
		c-1.6,0-2.4-0.7-2.4-2.1c0-1.9,1.4-2.8,4.3-2.8l1.4,0.2V18.8z M133.2,24.8l1-1c-0.8-0.5-1.2-1.8-1.2-3.9v-3.4c0-3-0.6-5.1-1.7-6.1
		c-1.1-1-2.8-1.6-5.2-1.6c-1.7,0-3.2,0.3-4.4,0.9l0.8,2.9c0.9-0.4,2-0.7,3.4-0.7c2.3,0,3.4,0.9,3.4,2.7l-1.5-0.2
		c-2.4,0-4.4,0.5-5.7,1.5c-1.3,1-2,2.4-2,4.2c0,1.5,0.5,2.7,1.4,3.6c1,0.8,2.3,1.2,3.9,1.2l2.6-0.5l1.7-1.3l0.8,1.2L132,25
		L133.2,24.8z M129.8,60.4V40.2c1.6-1.7,3.6-2.5,5.7-2.5c4.1,0,7.1,0.9,8.9,2.7c1.8,1.9,2.7,5.1,2.7,9.6c0,4.3-0.9,7.3-2.7,9.3
		c-1.8,1.9-4.7,2.9-8.9,2.9C133.3,62.3,131.4,61.7,129.8,60.4 M129.8,83.5V68.2c2.3,1.1,4.8,1.7,7.7,1.7c5.8,0,10.4-1.7,13.8-5.1
		c3.4-3.5,5.1-8.2,5.1-14.6c0-13.5-6.1-20.2-18.3-20.2c-3.3,0-6,1.1-8.2,3.3v-2.6h-8.9v53.3h0.6c-8.4,1.4-15.4,4.7-21.1,10
		c-7.7,7.1-11.6,16.4-11.6,27.7c0,11.7,3.7,21.2,11.1,28.2c7.4,7.2,17.8,10.6,31.1,10.6c13,0,23.4-3.4,30.9-10.5
		c7.5-7,11.3-16.5,11.3-28.3c0-11.9-3.7-21.3-11.1-28.2c-7.4-6.9-17.7-10.3-31.1-10.3C130.6,83.4,130.2,83.4,129.8,83.5 M188.8,69.2
		h8.9V30.9h-8.9v26.3c-0.6,1.4-1.7,2.7-3.5,3.7c-1.7,1-3.6,1.6-5.6,1.6c-4.4,0-6.6-2.5-6.6-7.4V30.9h-8.9v24.9
		c0,9.4,4.4,14.2,13.3,14.2c1.9,0,3.9-0.4,6.1-1.2c2.2-0.7,4-1.7,5.2-2.8V69.2z M214.2,50.3c0-4,1-7.1,2.9-9.3
		c1.9-2.3,4.6-3.4,8-3.4c3.5,0,6.3,1,8.4,3l3.8-6.7c-3.2-2.4-7.1-3.7-11.5-3.7c-6.5,0-11.5,1.8-15.3,5.6c-3.7,3.7-5.6,8.6-5.6,14.6
		c0,6.1,1.7,10.9,5.1,14.4c3.4,3.4,8.1,5.2,14,5.2c2.6,0,4.9-0.3,6.9-0.7c1.9-0.4,4.2-1.4,6.8-3l-3.3-7.1c-2.5,2.2-5.4,3.3-8.7,3.3
		C218,62.4,214.2,58.4,214.2,50.3 M247.2,38.2v27.9l-11.8,3.7v15.1h-4.3c-3.3-0.9-7.5-1.4-12.5-1.4c-9.5,0-17.1,2.8-22.9,8.3v-6.8
		h-20.5v74.4h20.5v-42.4c0-5.3,1.9-9.8,5.5-13.4c3.7-3.7,7.9-5.5,12.7-5.5c4.4,0,8.4,1.1,12.1,3.1l1.3-2.3h8.1v37.7
		c0,7.8,2.3,13.8,7.1,18c4.7,4.2,11.5,6.2,20.3,6.2c8.8,0,15.6-0.6,20.4-2v-16c-4.3,2.3-8.9,3.4-13.9,3.4c-4.9,0-8.4-1.1-10.4-3.3
		c-2-2.2-3-6-3-11.3V98.8h24.2v-14h-24.2V69.1h0.3V30.9h-14v7.3H247.2z M255.5,24.9c1-1,1.5-2.2,1.5-3.7c0-1.4-0.5-2.6-1.5-3.7
		c-1-1-2.3-1.5-3.7-1.5c-1.4,0-2.7,0.5-3.7,1.5c-1,1.1-1.5,2.3-1.5,3.7c0,1.5,0.5,2.7,1.5,3.7c1,1,2.2,1.5,3.7,1.5
		C253.2,26.4,254.5,25.9,255.5,24.9 M291.7,49.9c0,4.1-0.8,7.2-2.4,9.4c-1.6,2.2-3.8,3.3-6.6,3.3c-6.1,0-9.1-4.2-9.1-12.7
		c0-3.9,0.8-7,2.5-9.2c1.6-2.2,3.8-3.3,6.6-3.3C288.7,37.5,291.7,41.6,291.7,49.9 M296,64.5c3.3-3.6,4.9-8.4,4.9-14.6
		c0-6.1-1.6-11-4.8-14.5c-3.2-3.5-7.7-5.3-13.5-5.3c-5.5,0-9.9,1.8-13.3,5.5c-3.4,3.7-5,8.4-5,14.3c0,6,1.6,10.9,4.8,14.6
		c3.2,3.6,7.7,5.5,13.5,5.5C288.3,69.9,292.8,68.1,296,64.5 M344.1,114.3h-43c2.8-10.9,10.1-16.4,21.7-16.4
		C335.6,97.9,342.7,103.4,344.1,114.3 M363,127.5c1.2-4.4,1.7-7.6,1.7-9.7c0-9.9-3.8-18.1-11.5-24.6c-7.7-6.5-17.9-9.7-30.7-9.7
		c-12,0-22.2,3.6-30.8,10.9c-8.6,7.3-12.8,16.8-12.8,28.6c0,11.9,3.9,21.2,11.7,27.9c7.8,6.7,18.4,10,31.8,10
		c14.3,0,25.1-2.5,32.3-7.4l-8-13.3c-4.9,4.1-12,6.2-21.4,6.2c-7.5,0-13.5-1.7-17.9-4.9c-4.5-3.3-6.8-7.9-7.2-13.8H363z M369,155.2
		l-1.1,0.2h-1.1V153h1l1.4,0.2l0.4,1L369,155.2z M370.3,156.4l-1.1-0.7l1-0.3l0.6-1.3l-1-1.7l-1.8-0.2h-2.3v6.5h1.2v-2.6h0.9
		l1.3,0.2l0.6,1.5v0.5l0,0.3l0,0l0,0.1h1.1l0-0.1l-0.1-0.4l0-0.5v-0.5L370.3,156.4z M373.2,155.5c0,1.4-0.5,2.7-1.5,3.7
		c-1,1-2.2,1.5-3.6,1.5c-1.4,0-2.6-0.5-3.6-1.5c-1-1-1.5-2.2-1.5-3.7c0-1.4,0.5-2.6,1.5-3.6c1-1,2.2-1.5,3.6-1.5
		c1.4,0,2.6,0.5,3.6,1.5C372.7,152.9,373.2,154.1,373.2,155.5 M374,155.5c0-1.7-0.6-3.1-1.7-4.2c-1.2-1.2-2.6-1.8-4.2-1.8
		c-1.6,0-3,0.6-4.2,1.8c-1.2,1.1-1.7,2.5-1.7,4.2c0,1.7,0.6,3.1,1.7,4.2c1.2,1.2,2.6,1.8,4.2,1.8c1.6,0,3-0.6,4.2-1.8
		C373.5,158.6,374,157.2,374,155.5"/>
	<path class="st1" d="M144.5,121.7l-5.1-5.1v27.1c0,3.5-2.9,6.5-6.4,6.5c-3.6,0-6.4-2.9-6.4-6.5v-27l-5.4,5.4
		c-2.5,2.6-6.6,2.6-9.1,0c-2.5-2.4-2.5-6.5,0-9.1l16.4-16.3c2.3-2.3,5.7-2.5,8.2-0.8l0.3,0.2l0.5,0.4l16.1,16.2
		c2.5,2.4,2.5,6.5,0,9.1C151,124.2,147,124.2,144.5,121.7"/>
</g>
</svg>
